{
    "asset" : {
        "generator" : "Khronos glTF Blender I/O v3.4.50",
        "version" : "2.0"
    },
    "scene" : 0,
    "scenes" : [
        {
            "name" : "Scene",
            "nodes" : [
                0
            ]
        }
    ],
    "nodes" : [
        {
            "mesh" : 0,
            "name" : "Cylinder",
            "rotation" : [
                0,
                1,
                0,
                0
            ],
            "scale" : [
                -0.22229309380054474,
                -0.021886466071009636,
                -0.2364804893732071
            ],
            "translation" : [
                0.015944115817546844,
                0.03335157036781311,
                0.1640823781490326
            ]
        }
    ],
    "meshes" : [
        {
            "name" : "Cylinder",
            "primitives" : [
                {
                    "attributes" : {
                        "POSITION" : 0,
                        "TEXCOORD_0" : 1,
                        "NORMAL" : 2
                    },
                    "indices" : 3
                }
            ]
        }
    ],
    "accessors" : [
        {
            "bufferView" : 0,
            "componentType" : 5126,
            "count" : 1088,
            "max" : [
                3.856788158416748,
                1,
                3.8567891120910645
            ],
            "min" : [
                -3.8567886352539062,
                -58.407772064208984,
                -3.8567891120910645
            ],
            "type" : "VEC3"
        },
        {
            "bufferView" : 1,
            "componentType" : 5126,
            "count" : 1088,
            "type" : "VEC2"
        },
        {
            "bufferView" : 2,
            "componentType" : 5126,
            "count" : 1088,
            "type" : "VEC3"
        },
        {
            "bufferView" : 3,
            "componentType" : 5123,
            "count" : 1716,
            "type" : "SCALAR"
        }
    ],
    "bufferViews" : [
        {
            "buffer" : 0,
            "byteLength" : 13056,
            "byteOffset" : 0,
            "target" : 34962
        },
        {
            "buffer" : 0,
            "byteLength" : 8704,
            "byteOffset" : 13056,
            "target" : 34962
        },
        {
            "buffer" : 0,
            "byteLength" : 13056,
            "byteOffset" : 21760,
            "target" : 34962
        },
        {
            "buffer" : 0,
            "byteLength" : 3432,
            "byteOffset" : 34816,
            "target" : 34963
        }
    ],
    "buffers" : [
        {
            "byteLength" : 38248,
            "uri" : "table.bin"
        }
    ]
}
